<svg width="1459" height="792" viewBox="0 0 1459 792" fill="none" xmlns="http://www.w3.org/2000/svg">
<g opacity="0.6" clip-path="url(#clip0)">
<path d="M1748 493.364C1698.38 553.026 1596.06 479.618 1451.04 516.048C1325.44 547.615 1319.9 624.023 1218.94 622.53C1145.18 621.453 1063.91 580.72 1018.1 507.585C967.569 426.949 983.376 343.33 987.884 323.024C1008 231.945 1072.73 182.674 1095.57 165.828C1189.7 96.4669 1297.3 105.808 1348.93 110.263C1542.83 127.062 1753.04 260.461 1765.67 410.389C1767.34 430.017 1770.39 466.423 1748 493.364Z" fill="url(#paint0_linear)"/>
</g>
<g opacity="0.3">
<mask id="mask0" mask-type="alpha" maskUnits="userSpaceOnUse" x="0" y="31" width="11" height="11">
<path d="M5.22838 41.4252C8.11594 41.4252 10.4568 39.0915 10.4568 36.2127C10.4568 33.3339 8.11594 31.0002 5.22838 31.0002C2.34082 31.0002 0 33.3339 0 36.2127C0 39.0915 2.34082 41.4252 5.22838 41.4252Z" fill="url(#paint1_linear)"/>
</mask>
<g mask="url(#mask0)">
<path d="M5.22838 41.4252C8.11594 41.4252 10.4568 39.0915 10.4568 36.2127C10.4568 33.3339 8.11594 31.0002 5.22838 31.0002C2.34082 31.0002 0 33.3339 0 36.2127C0 39.0915 2.34082 41.4252 5.22838 41.4252Z" fill="url(#paint2_linear)"/>
</g>
<mask id="mask1" mask-type="alpha" maskUnits="userSpaceOnUse" x="30" y="31" width="11" height="11">
<path d="M35.5095 41.4252C38.397 41.4252 40.7378 39.0915 40.7378 36.2127C40.7378 33.3339 38.397 31.0002 35.5095 31.0002C32.6219 31.0002 30.2811 33.3339 30.2811 36.2127C30.2811 39.0915 32.6219 41.4252 35.5095 41.4252Z" fill="url(#paint3_linear)"/>
</mask>
<g mask="url(#mask1)">
<path d="M35.5095 41.4252C38.397 41.4252 40.7378 39.0915 40.7378 36.2127C40.7378 33.3339 38.397 31.0002 35.5095 31.0002C32.6219 31.0002 30.2811 33.3339 30.2811 36.2127C30.2811 39.0915 32.6219 41.4252 35.5095 41.4252Z" fill="url(#paint4_linear)"/>
</g>
<mask id="mask2" mask-type="alpha" maskUnits="userSpaceOnUse" x="60" y="31" width="12" height="11">
<path d="M65.7905 41.4252C68.6781 41.4252 71.0189 39.0915 71.0189 36.2127C71.0189 33.3339 68.6781 31.0002 65.7905 31.0002C62.9029 31.0002 60.5621 33.3339 60.5621 36.2127C60.5621 39.0915 62.9029 41.4252 65.7905 41.4252Z" fill="url(#paint5_linear)"/>
</mask>
<g mask="url(#mask2)">
<path d="M65.7905 41.4252C68.6781 41.4252 71.0189 39.0915 71.0189 36.2127C71.0189 33.3339 68.6781 31.0002 65.7905 31.0002C62.9029 31.0002 60.5621 33.3339 60.5621 36.2127C60.5621 39.0915 62.9029 41.4252 65.7905 41.4252Z" fill="url(#paint6_linear)"/>
</g>
<mask id="mask3" mask-type="alpha" maskUnits="userSpaceOnUse" x="90" y="31" width="12" height="11">
<path d="M96.0716 41.4252C98.9592 41.4252 101.3 39.0915 101.3 36.2127C101.3 33.3339 98.9592 31.0002 96.0716 31.0002C93.184 31.0002 90.8432 33.3339 90.8432 36.2127C90.8432 39.0915 93.184 41.4252 96.0716 41.4252Z" fill="url(#paint7_linear)"/>
</mask>
<g mask="url(#mask3)">
<path d="M96.0716 41.4252C98.9592 41.4252 101.3 39.0915 101.3 36.2127C101.3 33.3339 98.9592 31.0002 96.0716 31.0002C93.184 31.0002 90.8432 33.3339 90.8432 36.2127C90.8432 39.0915 93.184 41.4252 96.0716 41.4252Z" fill="url(#paint8_linear)"/>
</g>
<mask id="mask4" mask-type="alpha" maskUnits="userSpaceOnUse" x="121" y="31" width="11" height="11">
<path d="M126.353 41.4252C129.24 41.4252 131.581 39.0915 131.581 36.2127C131.581 33.3339 129.24 31.0002 126.353 31.0002C123.465 31.0002 121.124 33.3339 121.124 36.2127C121.124 39.0915 123.465 41.4252 126.353 41.4252Z" fill="url(#paint9_linear)"/>
</mask>
<g mask="url(#mask4)">
<path d="M126.353 41.4252C129.24 41.4252 131.581 39.0915 131.581 36.2127C131.581 33.3339 129.24 31.0002 126.353 31.0002C123.465 31.0002 121.124 33.3339 121.124 36.2127C121.124 39.0915 123.465 41.4252 126.353 41.4252Z" fill="url(#paint10_linear)"/>
</g>
<mask id="mask5" mask-type="alpha" maskUnits="userSpaceOnUse" x="0" y="57" width="11" height="11">
<path d="M5.22838 67.596C8.11594 67.596 10.4568 65.2623 10.4568 62.3836C10.4568 59.5048 8.11594 57.1711 5.22838 57.1711C2.34082 57.1711 0 59.5048 0 62.3836C0 65.2623 2.34082 67.596 5.22838 67.596Z" fill="url(#paint11_linear)"/>
</mask>
<g mask="url(#mask5)">
<path d="M5.22838 67.596C8.11594 67.596 10.4568 65.2623 10.4568 62.3836C10.4568 59.5048 8.11594 57.1711 5.22838 57.1711C2.34082 57.1711 0 59.5048 0 62.3836C0 65.2623 2.34082 67.596 5.22838 67.596Z" fill="url(#paint12_linear)"/>
</g>
<mask id="mask6" mask-type="alpha" maskUnits="userSpaceOnUse" x="30" y="57" width="11" height="11">
<path d="M35.5095 67.596C38.397 67.596 40.7378 65.2623 40.7378 62.3836C40.7378 59.5048 38.397 57.1711 35.5095 57.1711C32.6219 57.1711 30.2811 59.5048 30.2811 62.3836C30.2811 65.2623 32.6219 67.596 35.5095 67.596Z" fill="url(#paint13_linear)"/>
</mask>
<g mask="url(#mask6)">
<path d="M35.5095 67.596C38.397 67.596 40.7378 65.2623 40.7378 62.3836C40.7378 59.5048 38.397 57.1711 35.5095 57.1711C32.6219 57.1711 30.2811 59.5048 30.2811 62.3836C30.2811 65.2623 32.6219 67.596 35.5095 67.596Z" fill="url(#paint14_linear)"/>
</g>
<mask id="mask7" mask-type="alpha" maskUnits="userSpaceOnUse" x="60" y="57" width="12" height="11">
<path d="M65.7905 67.596C68.6781 67.596 71.0189 65.2623 71.0189 62.3836C71.0189 59.5048 68.6781 57.1711 65.7905 57.1711C62.9029 57.1711 60.5621 59.5048 60.5621 62.3836C60.5621 65.2623 62.9029 67.596 65.7905 67.596Z" fill="url(#paint15_linear)"/>
</mask>
<g mask="url(#mask7)">
<path d="M65.7905 67.596C68.6781 67.596 71.0189 65.2623 71.0189 62.3836C71.0189 59.5048 68.6781 57.1711 65.7905 57.1711C62.9029 57.1711 60.5621 59.5048 60.5621 62.3836C60.5621 65.2623 62.9029 67.596 65.7905 67.596Z" fill="url(#paint16_linear)"/>
</g>
<mask id="mask8" mask-type="alpha" maskUnits="userSpaceOnUse" x="90" y="57" width="12" height="11">
<path d="M96.0716 67.596C98.9592 67.596 101.3 65.2623 101.3 62.3836C101.3 59.5048 98.9592 57.1711 96.0716 57.1711C93.184 57.1711 90.8432 59.5048 90.8432 62.3836C90.8432 65.2623 93.184 67.596 96.0716 67.596Z" fill="url(#paint17_linear)"/>
</mask>
<g mask="url(#mask8)">
<path d="M96.0716 67.596C98.9592 67.596 101.3 65.2623 101.3 62.3836C101.3 59.5048 98.9592 57.1711 96.0716 57.1711C93.184 57.1711 90.8432 59.5048 90.8432 62.3836C90.8432 65.2623 93.184 67.596 96.0716 67.596Z" fill="url(#paint18_linear)"/>
</g>
<mask id="mask9" mask-type="alpha" maskUnits="userSpaceOnUse" x="121" y="57" width="11" height="11">
<path d="M126.353 67.596C129.24 67.596 131.581 65.2623 131.581 62.3836C131.581 59.5048 129.24 57.1711 126.353 57.1711C123.465 57.1711 121.124 59.5048 121.124 62.3836C121.124 65.2623 123.465 67.596 126.353 67.596Z" fill="url(#paint19_linear)"/>
</mask>
<g mask="url(#mask9)">
<path d="M126.353 67.596C129.24 67.596 131.581 65.2623 131.581 62.3836C131.581 59.5048 129.24 57.1711 126.353 57.1711C123.465 57.1711 121.124 59.5048 121.124 62.3836C121.124 65.2623 123.465 67.596 126.353 67.596Z" fill="url(#paint20_linear)"/>
</g>
<mask id="mask10" mask-type="alpha" maskUnits="userSpaceOnUse" x="0" y="83" width="11" height="11">
<path d="M5.22838 93.7128C8.11594 93.7128 10.4568 91.3791 10.4568 88.5003C10.4568 85.6215 8.11594 83.2878 5.22838 83.2878C2.34082 83.2878 0 85.6215 0 88.5003C0 91.3791 2.34082 93.7128 5.22838 93.7128Z" fill="url(#paint21_linear)"/>
</mask>
<g mask="url(#mask10)">
<path d="M5.22838 93.7128C8.11594 93.7128 10.4568 91.3791 10.4568 88.5003C10.4568 85.6215 8.11594 83.2878 5.22838 83.2878C2.34082 83.2878 0 85.6215 0 88.5003C0 91.3791 2.34082 93.7128 5.22838 93.7128Z" fill="url(#paint22_linear)"/>
</g>
<mask id="mask11" mask-type="alpha" maskUnits="userSpaceOnUse" x="30" y="83" width="11" height="11">
<path d="M35.5095 93.7128C38.397 93.7128 40.7378 91.3791 40.7378 88.5003C40.7378 85.6215 38.397 83.2878 35.5095 83.2878C32.6219 83.2878 30.2811 85.6215 30.2811 88.5003C30.2811 91.3791 32.6219 93.7128 35.5095 93.7128Z" fill="url(#paint23_linear)"/>
</mask>
<g mask="url(#mask11)">
<path d="M35.5095 93.7128C38.397 93.7128 40.7378 91.3791 40.7378 88.5003C40.7378 85.6215 38.397 83.2878 35.5095 83.2878C32.6219 83.2878 30.2811 85.6215 30.2811 88.5003C30.2811 91.3791 32.6219 93.7128 35.5095 93.7128Z" fill="url(#paint24_linear)"/>
</g>
<mask id="mask12" mask-type="alpha" maskUnits="userSpaceOnUse" x="60" y="83" width="12" height="11">
<path d="M65.7905 93.7128C68.6781 93.7128 71.0189 91.3791 71.0189 88.5003C71.0189 85.6215 68.6781 83.2878 65.7905 83.2878C62.9029 83.2878 60.5621 85.6215 60.5621 88.5003C60.5621 91.3791 62.9029 93.7128 65.7905 93.7128Z" fill="url(#paint25_linear)"/>
</mask>
<g mask="url(#mask12)">
<path d="M65.7905 93.7128C68.6781 93.7128 71.0189 91.3791 71.0189 88.5003C71.0189 85.6215 68.6781 83.2878 65.7905 83.2878C62.9029 83.2878 60.5621 85.6215 60.5621 88.5003C60.5621 91.3791 62.9029 93.7128 65.7905 93.7128Z" fill="url(#paint26_linear)"/>
</g>
<mask id="mask13" mask-type="alpha" maskUnits="userSpaceOnUse" x="90" y="83" width="12" height="11">
<path d="M96.0716 93.7128C98.9592 93.7128 101.3 91.3791 101.3 88.5003C101.3 85.6215 98.9592 83.2878 96.0716 83.2878C93.184 83.2878 90.8432 85.6215 90.8432 88.5003C90.8432 91.3791 93.184 93.7128 96.0716 93.7128Z" fill="url(#paint27_linear)"/>
</mask>
<g mask="url(#mask13)">
<path d="M96.0716 93.7128C98.9592 93.7128 101.3 91.3791 101.3 88.5003C101.3 85.6215 98.9592 83.2878 96.0716 83.2878C93.184 83.2878 90.8432 85.6215 90.8432 88.5003C90.8432 91.3791 93.184 93.7128 96.0716 93.7128Z" fill="url(#paint28_linear)"/>
</g>
<mask id="mask14" mask-type="alpha" maskUnits="userSpaceOnUse" x="121" y="83" width="11" height="11">
<path d="M126.353 93.7128C129.24 93.7128 131.581 91.3791 131.581 88.5003C131.581 85.6215 129.24 83.2878 126.353 83.2878C123.465 83.2878 121.124 85.6215 121.124 88.5003C121.124 91.3791 123.465 93.7128 126.353 93.7128Z" fill="url(#paint29_linear)"/>
</mask>
<g mask="url(#mask14)">
<path d="M126.353 93.7128C129.24 93.7128 131.581 91.3791 131.581 88.5003C131.581 85.6215 129.24 83.2878 126.353 83.2878C123.465 83.2878 121.124 85.6215 121.124 88.5003C121.124 91.3791 123.465 93.7128 126.353 93.7128Z" fill="url(#paint30_linear)"/>
</g>
<mask id="mask15" mask-type="alpha" maskUnits="userSpaceOnUse" x="0" y="109" width="11" height="11">
<path d="M5.22838 119.884C8.11594 119.884 10.4568 117.55 10.4568 114.671C10.4568 111.792 8.11594 109.459 5.22838 109.459C2.34082 109.459 0 111.792 0 114.671C0 117.55 2.34082 119.884 5.22838 119.884Z" fill="url(#paint31_linear)"/>
</mask>
<g mask="url(#mask15)">
<path d="M5.22838 119.884C8.11594 119.884 10.4568 117.55 10.4568 114.671C10.4568 111.792 8.11594 109.459 5.22838 109.459C2.34082 109.459 0 111.792 0 114.671C0 117.55 2.34082 119.884 5.22838 119.884Z" fill="url(#paint32_linear)"/>
</g>
<mask id="mask16" mask-type="alpha" maskUnits="userSpaceOnUse" x="30" y="109" width="11" height="11">
<path d="M35.5095 119.884C38.397 119.884 40.7378 117.55 40.7378 114.671C40.7378 111.792 38.397 109.459 35.5095 109.459C32.6219 109.459 30.2811 111.792 30.2811 114.671C30.2811 117.55 32.6219 119.884 35.5095 119.884Z" fill="url(#paint33_linear)"/>
</mask>
<g mask="url(#mask16)">
<path d="M35.5095 119.884C38.397 119.884 40.7378 117.55 40.7378 114.671C40.7378 111.792 38.397 109.459 35.5095 109.459C32.6219 109.459 30.2811 111.792 30.2811 114.671C30.2811 117.55 32.6219 119.884 35.5095 119.884Z" fill="url(#paint34_linear)"/>
</g>
<mask id="mask17" mask-type="alpha" maskUnits="userSpaceOnUse" x="60" y="109" width="12" height="11">
<path d="M65.7905 119.884C68.6781 119.884 71.0189 117.55 71.0189 114.671C71.0189 111.792 68.6781 109.459 65.7905 109.459C62.9029 109.459 60.5621 111.792 60.5621 114.671C60.5621 117.55 62.9029 119.884 65.7905 119.884Z" fill="url(#paint35_linear)"/>
</mask>
<g mask="url(#mask17)">
<path d="M65.7905 119.884C68.6781 119.884 71.0189 117.55 71.0189 114.671C71.0189 111.792 68.6781 109.459 65.7905 109.459C62.9029 109.459 60.5621 111.792 60.5621 114.671C60.5621 117.55 62.9029 119.884 65.7905 119.884Z" fill="url(#paint36_linear)"/>
</g>
<mask id="mask18" mask-type="alpha" maskUnits="userSpaceOnUse" x="90" y="109" width="12" height="11">
<path d="M96.0716 119.884C98.9592 119.884 101.3 117.55 101.3 114.671C101.3 111.792 98.9592 109.459 96.0716 109.459C93.184 109.459 90.8432 111.792 90.8432 114.671C90.8432 117.55 93.184 119.884 96.0716 119.884Z" fill="url(#paint37_linear)"/>
</mask>
<g mask="url(#mask18)">
<path d="M96.0716 119.884C98.9592 119.884 101.3 117.55 101.3 114.671C101.3 111.792 98.9592 109.459 96.0716 109.459C93.184 109.459 90.8432 111.792 90.8432 114.671C90.8432 117.55 93.184 119.884 96.0716 119.884Z" fill="url(#paint38_linear)"/>
</g>
<mask id="mask19" mask-type="alpha" maskUnits="userSpaceOnUse" x="121" y="109" width="11" height="11">
<path d="M126.353 119.884C129.24 119.884 131.581 117.55 131.581 114.671C131.581 111.792 129.24 109.459 126.353 109.459C123.465 109.459 121.124 111.792 121.124 114.671C121.124 117.55 123.465 119.884 126.353 119.884Z" fill="url(#paint39_linear)"/>
</mask>
<g mask="url(#mask19)">
<path d="M126.353 119.884C129.24 119.884 131.581 117.55 131.581 114.671C131.581 111.792 129.24 109.459 126.353 109.459C123.465 109.459 121.124 111.792 121.124 114.671C121.124 117.55 123.465 119.884 126.353 119.884Z" fill="url(#paint40_linear)"/>
</g>
<mask id="mask20" mask-type="alpha" maskUnits="userSpaceOnUse" x="0" y="135" width="11" height="12">
<path d="M5.22838 146C8.11594 146 10.4568 143.666 10.4568 140.788C10.4568 137.909 8.11594 135.575 5.22838 135.575C2.34082 135.575 0 137.909 0 140.788C0 143.666 2.34082 146 5.22838 146Z" fill="url(#paint41_linear)"/>
</mask>
<g mask="url(#mask20)">
<path d="M5.22838 146C8.11594 146 10.4568 143.666 10.4568 140.788C10.4568 137.909 8.11594 135.575 5.22838 135.575C2.34082 135.575 0 137.909 0 140.788C0 143.666 2.34082 146 5.22838 146Z" fill="url(#paint42_linear)"/>
</g>
<mask id="mask21" mask-type="alpha" maskUnits="userSpaceOnUse" x="30" y="135" width="11" height="12">
<path d="M35.5095 146C38.397 146 40.7378 143.666 40.7378 140.788C40.7378 137.909 38.397 135.575 35.5095 135.575C32.6219 135.575 30.2811 137.909 30.2811 140.788C30.2811 143.666 32.6219 146 35.5095 146Z" fill="url(#paint43_linear)"/>
</mask>
<g mask="url(#mask21)">
<path d="M35.5095 146C38.397 146 40.7378 143.666 40.7378 140.788C40.7378 137.909 38.397 135.575 35.5095 135.575C32.6219 135.575 30.2811 137.909 30.2811 140.788C30.2811 143.666 32.6219 146 35.5095 146Z" fill="url(#paint44_linear)"/>
</g>
<mask id="mask22" mask-type="alpha" maskUnits="userSpaceOnUse" x="60" y="135" width="12" height="12">
<path d="M65.7905 146C68.6781 146 71.0189 143.666 71.0189 140.788C71.0189 137.909 68.6781 135.575 65.7905 135.575C62.9029 135.575 60.5621 137.909 60.5621 140.788C60.5621 143.666 62.9029 146 65.7905 146Z" fill="url(#paint45_linear)"/>
</mask>
<g mask="url(#mask22)">
<path d="M65.7905 146C68.6781 146 71.0189 143.666 71.0189 140.788C71.0189 137.909 68.6781 135.575 65.7905 135.575C62.9029 135.575 60.5621 137.909 60.5621 140.788C60.5621 143.666 62.9029 146 65.7905 146Z" fill="url(#paint46_linear)"/>
</g>
<mask id="mask23" mask-type="alpha" maskUnits="userSpaceOnUse" x="90" y="135" width="12" height="12">
<path d="M96.0716 146C98.9592 146 101.3 143.666 101.3 140.788C101.3 137.909 98.9592 135.575 96.0716 135.575C93.184 135.575 90.8432 137.909 90.8432 140.788C90.8432 143.666 93.184 146 96.0716 146Z" fill="url(#paint47_linear)"/>
</mask>
<g mask="url(#mask23)">
<path d="M96.0716 146C98.9592 146 101.3 143.666 101.3 140.788C101.3 137.909 98.9592 135.575 96.0716 135.575C93.184 135.575 90.8432 137.909 90.8432 140.788C90.8432 143.666 93.184 146 96.0716 146Z" fill="url(#paint48_linear)"/>
</g>
<mask id="mask24" mask-type="alpha" maskUnits="userSpaceOnUse" x="121" y="135" width="11" height="12">
<path d="M126.353 146C129.24 146 131.581 143.666 131.581 140.788C131.581 137.909 129.24 135.575 126.353 135.575C123.465 135.575 121.124 137.909 121.124 140.788C121.124 143.666 123.465 146 126.353 146Z" fill="url(#paint49_linear)"/>
</mask>
<g mask="url(#mask24)">
<path d="M126.353 146C129.24 146 131.581 143.666 131.581 140.788C131.581 137.909 129.24 135.575 126.353 135.575C123.465 135.575 121.124 137.909 121.124 140.788C121.124 143.666 123.465 146 126.353 146Z" fill="url(#paint50_linear)"/>
</g>
</g>
<defs>
<linearGradient id="paint0_linear" x1="1268.01" y1="742.124" x2="1449.15" y2="151.875" gradientUnits="userSpaceOnUse">
<stop stop-color="#F3F7FF"/>
<stop offset="1" stop-color="#DEEEFE"/>
</linearGradient>
<linearGradient id="paint1_linear" x1="54.996" y1="162.134" x2="-16.4057" y2="-19.6697" gradientUnits="userSpaceOnUse">
<stop/>
<stop offset="1" stop-color="white"/>
</linearGradient>
<linearGradient id="paint2_linear" x1="54.996" y1="162.134" x2="-16.4057" y2="-19.6697" gradientUnits="userSpaceOnUse">
<stop stop-color="#97C3F9"/>
<stop offset="1" stop-color="#93C1F9"/>
</linearGradient>
<linearGradient id="paint3_linear" x1="81.2005" y1="151.843" x2="9.79889" y2="-29.961" gradientUnits="userSpaceOnUse">
<stop/>
<stop offset="1" stop-color="white"/>
</linearGradient>
<linearGradient id="paint4_linear" x1="81.2005" y1="151.843" x2="9.79889" y2="-29.961" gradientUnits="userSpaceOnUse">
<stop stop-color="#97C3F9"/>
<stop offset="1" stop-color="#93C1F9"/>
</linearGradient>
<linearGradient id="paint5_linear" x1="107.405" y1="141.551" x2="36.0033" y2="-40.2523" gradientUnits="userSpaceOnUse">
<stop/>
<stop offset="1" stop-color="white"/>
</linearGradient>
<linearGradient id="paint6_linear" x1="107.405" y1="141.551" x2="36.0033" y2="-40.2523" gradientUnits="userSpaceOnUse">
<stop stop-color="#97C3F9"/>
<stop offset="1" stop-color="#93C1F9"/>
</linearGradient>
<linearGradient id="paint7_linear" x1="133.609" y1="131.26" x2="62.2075" y2="-50.5442" gradientUnits="userSpaceOnUse">
<stop/>
<stop offset="1" stop-color="white"/>
</linearGradient>
<linearGradient id="paint8_linear" x1="133.609" y1="131.26" x2="62.2075" y2="-50.5442" gradientUnits="userSpaceOnUse">
<stop stop-color="#97C3F9"/>
<stop offset="1" stop-color="#93C1F9"/>
</linearGradient>
<linearGradient id="paint9_linear" x1="159.813" y1="120.968" x2="88.4119" y2="-60.8357" gradientUnits="userSpaceOnUse">
<stop/>
<stop offset="1" stop-color="white"/>
</linearGradient>
<linearGradient id="paint10_linear" x1="159.813" y1="120.968" x2="88.4119" y2="-60.8357" gradientUnits="userSpaceOnUse">
<stop stop-color="#97C3F9"/>
<stop offset="1" stop-color="#93C1F9"/>
</linearGradient>
<linearGradient id="paint11_linear" x1="46.0538" y1="165.646" x2="-25.3466" y2="-16.1569" gradientUnits="userSpaceOnUse">
<stop/>
<stop offset="1" stop-color="white"/>
</linearGradient>
<linearGradient id="paint12_linear" x1="46.0538" y1="165.646" x2="-25.3466" y2="-16.1569" gradientUnits="userSpaceOnUse">
<stop stop-color="#97C3F9"/>
<stop offset="1" stop-color="#93C1F9"/>
</linearGradient>
<linearGradient id="paint13_linear" x1="72.2581" y1="155.354" x2="0.857718" y2="-26.4488" gradientUnits="userSpaceOnUse">
<stop/>
<stop offset="1" stop-color="white"/>
</linearGradient>
<linearGradient id="paint14_linear" x1="72.2581" y1="155.354" x2="0.857718" y2="-26.4488" gradientUnits="userSpaceOnUse">
<stop stop-color="#97C3F9"/>
<stop offset="1" stop-color="#93C1F9"/>
</linearGradient>
<linearGradient id="paint15_linear" x1="98.4624" y1="145.062" x2="27.062" y2="-36.7401" gradientUnits="userSpaceOnUse">
<stop/>
<stop offset="1" stop-color="white"/>
</linearGradient>
<linearGradient id="paint16_linear" x1="98.4624" y1="145.062" x2="27.062" y2="-36.7401" gradientUnits="userSpaceOnUse">
<stop stop-color="#97C3F9"/>
<stop offset="1" stop-color="#93C1F9"/>
</linearGradient>
<linearGradient id="paint17_linear" x1="124.667" y1="134.771" x2="53.2663" y2="-47.0316" gradientUnits="userSpaceOnUse">
<stop/>
<stop offset="1" stop-color="white"/>
</linearGradient>
<linearGradient id="paint18_linear" x1="124.667" y1="134.771" x2="53.2663" y2="-47.0316" gradientUnits="userSpaceOnUse">
<stop stop-color="#97C3F9"/>
<stop offset="1" stop-color="#93C1F9"/>
</linearGradient>
<linearGradient id="paint19_linear" x1="150.871" y1="124.48" x2="79.4707" y2="-57.3229" gradientUnits="userSpaceOnUse">
<stop/>
<stop offset="1" stop-color="white"/>
</linearGradient>
<linearGradient id="paint20_linear" x1="150.871" y1="124.48" x2="79.4707" y2="-57.3229" gradientUnits="userSpaceOnUse">
<stop stop-color="#97C3F9"/>
<stop offset="1" stop-color="#93C1F9"/>
</linearGradient>
<linearGradient id="paint21_linear" x1="37.1113" y1="169.158" x2="-34.2903" y2="-12.6455" gradientUnits="userSpaceOnUse">
<stop/>
<stop offset="1" stop-color="white"/>
</linearGradient>
<linearGradient id="paint22_linear" x1="37.1113" y1="169.158" x2="-34.2903" y2="-12.6455" gradientUnits="userSpaceOnUse">
<stop stop-color="#97C3F9"/>
<stop offset="1" stop-color="#93C1F9"/>
</linearGradient>
<linearGradient id="paint23_linear" x1="63.3157" y1="158.867" x2="-8.0859" y2="-22.9371" gradientUnits="userSpaceOnUse">
<stop/>
<stop offset="1" stop-color="white"/>
</linearGradient>
<linearGradient id="paint24_linear" x1="63.3157" y1="158.867" x2="-8.0859" y2="-22.9371" gradientUnits="userSpaceOnUse">
<stop stop-color="#97C3F9"/>
<stop offset="1" stop-color="#93C1F9"/>
</linearGradient>
<linearGradient id="paint25_linear" x1="89.52" y1="148.575" x2="18.1185" y2="-33.2285" gradientUnits="userSpaceOnUse">
<stop/>
<stop offset="1" stop-color="white"/>
</linearGradient>
<linearGradient id="paint26_linear" x1="89.52" y1="148.575" x2="18.1185" y2="-33.2285" gradientUnits="userSpaceOnUse">
<stop stop-color="#97C3F9"/>
<stop offset="1" stop-color="#93C1F9"/>
</linearGradient>
<linearGradient id="paint27_linear" x1="115.724" y1="138.284" x2="44.3227" y2="-43.5201" gradientUnits="userSpaceOnUse">
<stop/>
<stop offset="1" stop-color="white"/>
</linearGradient>
<linearGradient id="paint28_linear" x1="115.724" y1="138.284" x2="44.3227" y2="-43.5201" gradientUnits="userSpaceOnUse">
<stop stop-color="#97C3F9"/>
<stop offset="1" stop-color="#93C1F9"/>
</linearGradient>
<linearGradient id="paint29_linear" x1="141.929" y1="127.992" x2="70.5271" y2="-53.8116" gradientUnits="userSpaceOnUse">
<stop/>
<stop offset="1" stop-color="white"/>
</linearGradient>
<linearGradient id="paint30_linear" x1="141.929" y1="127.992" x2="70.5271" y2="-53.8116" gradientUnits="userSpaceOnUse">
<stop stop-color="#97C3F9"/>
<stop offset="1" stop-color="#93C1F9"/>
</linearGradient>
<linearGradient id="paint31_linear" x1="28.169" y1="172.67" x2="-43.2327" y2="-9.13354" gradientUnits="userSpaceOnUse">
<stop/>
<stop offset="1" stop-color="white"/>
</linearGradient>
<linearGradient id="paint32_linear" x1="28.169" y1="172.67" x2="-43.2327" y2="-9.13354" gradientUnits="userSpaceOnUse">
<stop stop-color="#97C3F9"/>
<stop offset="1" stop-color="#93C1F9"/>
</linearGradient>
<linearGradient id="paint33_linear" x1="54.3734" y1="162.379" x2="-17.0283" y2="-19.425" gradientUnits="userSpaceOnUse">
<stop/>
<stop offset="1" stop-color="white"/>
</linearGradient>
<linearGradient id="paint34_linear" x1="54.3734" y1="162.379" x2="-17.0283" y2="-19.425" gradientUnits="userSpaceOnUse">
<stop stop-color="#97C3F9"/>
<stop offset="1" stop-color="#93C1F9"/>
</linearGradient>
<linearGradient id="paint35_linear" x1="80.5776" y1="152.087" x2="9.17606" y2="-29.7165" gradientUnits="userSpaceOnUse">
<stop/>
<stop offset="1" stop-color="white"/>
</linearGradient>
<linearGradient id="paint36_linear" x1="80.5776" y1="152.087" x2="9.17606" y2="-29.7165" gradientUnits="userSpaceOnUse">
<stop stop-color="#97C3F9"/>
<stop offset="1" stop-color="#93C1F9"/>
</linearGradient>
<linearGradient id="paint37_linear" x1="106.782" y1="141.796" x2="35.3804" y2="-40.0081" gradientUnits="userSpaceOnUse">
<stop/>
<stop offset="1" stop-color="white"/>
</linearGradient>
<linearGradient id="paint38_linear" x1="106.782" y1="141.796" x2="35.3804" y2="-40.0081" gradientUnits="userSpaceOnUse">
<stop stop-color="#97C3F9"/>
<stop offset="1" stop-color="#93C1F9"/>
</linearGradient>
<linearGradient id="paint39_linear" x1="132.986" y1="131.504" x2="61.5847" y2="-50.2996" gradientUnits="userSpaceOnUse">
<stop/>
<stop offset="1" stop-color="white"/>
</linearGradient>
<linearGradient id="paint40_linear" x1="132.986" y1="131.504" x2="61.5847" y2="-50.2996" gradientUnits="userSpaceOnUse">
<stop stop-color="#97C3F9"/>
<stop offset="1" stop-color="#93C1F9"/>
</linearGradient>
<linearGradient id="paint41_linear" x1="19.2266" y1="176.182" x2="-52.1751" y2="-5.62171" gradientUnits="userSpaceOnUse">
<stop/>
<stop offset="1" stop-color="white"/>
</linearGradient>
<linearGradient id="paint42_linear" x1="19.2266" y1="176.182" x2="-52.1751" y2="-5.62171" gradientUnits="userSpaceOnUse">
<stop stop-color="#97C3F9"/>
<stop offset="1" stop-color="#93C1F9"/>
</linearGradient>
<linearGradient id="paint43_linear" x1="45.431" y1="165.891" x2="-25.9706" y2="-15.9132" gradientUnits="userSpaceOnUse">
<stop/>
<stop offset="1" stop-color="white"/>
</linearGradient>
<linearGradient id="paint44_linear" x1="45.431" y1="165.891" x2="-25.9706" y2="-15.9132" gradientUnits="userSpaceOnUse">
<stop stop-color="#97C3F9"/>
<stop offset="1" stop-color="#93C1F9"/>
</linearGradient>
<linearGradient id="paint45_linear" x1="71.6353" y1="155.599" x2="0.233718" y2="-26.2045" gradientUnits="userSpaceOnUse">
<stop/>
<stop offset="1" stop-color="white"/>
</linearGradient>
<linearGradient id="paint46_linear" x1="71.6353" y1="155.599" x2="0.233718" y2="-26.2045" gradientUnits="userSpaceOnUse">
<stop stop-color="#97C3F9"/>
<stop offset="1" stop-color="#93C1F9"/>
</linearGradient>
<linearGradient id="paint47_linear" x1="97.8397" y1="145.308" x2="26.438" y2="-36.4962" gradientUnits="userSpaceOnUse">
<stop/>
<stop offset="1" stop-color="white"/>
</linearGradient>
<linearGradient id="paint48_linear" x1="97.8397" y1="145.308" x2="26.438" y2="-36.4962" gradientUnits="userSpaceOnUse">
<stop stop-color="#97C3F9"/>
<stop offset="1" stop-color="#93C1F9"/>
</linearGradient>
<linearGradient id="paint49_linear" x1="124.044" y1="135.016" x2="52.6424" y2="-46.7877" gradientUnits="userSpaceOnUse">
<stop/>
<stop offset="1" stop-color="white"/>
</linearGradient>
<linearGradient id="paint50_linear" x1="124.044" y1="135.016" x2="52.6424" y2="-46.7877" gradientUnits="userSpaceOnUse">
<stop stop-color="#97C3F9"/>
<stop offset="1" stop-color="#93C1F9"/>
</linearGradient>
<clipPath id="clip0">
<rect width="778.734" height="557.403" fill="white" transform="translate(1643.04 791.608) rotate(-159.843)"/>
</clipPath>
</defs>
</svg>
